<svg width="25" height="25" viewBox="0 0 25 25" fill="none" xmlns="http://www.w3.org/2000/svg">
  <path d="M19.73 6.29995C19.637 6.20622 19.5264 6.13183 19.4046 6.08106C19.2827 6.03029 19.152 6.00415 19.02 6.00415C18.888 6.00415 18.7573 6.03029 18.6354 6.08106C18.5136 6.13183 18.403 6.20622 18.31 6.29995L8.88 15.5599L5.72 12.4599C5.53264 12.2737 5.27919 12.1692 5.015 12.1692C4.75082 12.1692 4.49737 12.2737 4.31 12.4599C4.13271 12.6459 4.03381 12.893 4.03381 13.1499C4.03381 13.4069 4.13271 13.654 4.31 13.8399L8.31 17.7799C8.45525 17.9193 8.64873 17.9971 8.85 17.9971C9.05128 17.9971 9.24476 17.9193 9.39 17.7799L9.51 17.6599L9.71 17.4599L19.71 7.66995C19.8871 7.48705 19.9878 7.24348 19.9915 6.98891C19.9952 6.73434 19.9017 6.48794 19.73 6.29995V6.29995Z" fill="black" />
</svg>