<svg width="24" height="24" viewBox="0 0 24 24" fill="none" xmlns="http://www.w3.org/2000/svg">
  <path d="M20 3H4C3.73478 3 3.48043 3.10536 3.29289 3.29289C3.10536 3.48043 3 3.73478 3 4V20C3 20.2652 3.10536 20.5196 3.29289 20.7071C3.48043 20.8946 3.73478 21 4 21H20C20.2652 21 20.5196 20.8946 20.7071 20.7071C20.8946 20.5196 21 20.2652 21 20V4C21 3.73478 20.8946 3.48043 20.7071 3.29289C20.5196 3.10536 20.2652 3 20 3ZM17.47 13H6.53C6.25683 13 5.99484 12.8915 5.80168 12.6983C5.60852 12.5052 5.5 12.2432 5.5 11.97C5.5 11.6968 5.60852 11.4348 5.80168 11.2417C5.99484 11.0485 6.25683 10.94 6.53 10.94H17.47C17.7432 10.94 18.0052 11.0485 18.1983 11.2417C18.3915 11.4348 18.5 11.6968 18.5 11.97C18.5 12.2432 18.3915 12.5052 18.1983 12.6983C18.0052 12.8915 17.7432 13 17.47 13Z" fill="black" />
</svg>